<?xml version="1.0" standalone="no"?>
<svg version="1.0" xmlns="http://www.w3.org/2000/svg"
 width="270.000000pt" height="270.000000pt" viewBox="0 0 270.000000 270.000000"
 preserveAspectRatio="xMidYMid meet">
<circle cx="135" cy="135" r="135" fill="#96fbe3" />
<g transform="translate(0.000000,270.000000) scale(0.100000,-0.100000)"
fill="#0f3933" stroke="none">
<path fill-rule="evenodd" d="M1115 2684 c-561 -98 -1003 -544 -1100 -1108 -20 -116 -19 -336 1
-457 94 -561 541 -1006 1108 -1104 116 -20 336 -19 457 1 561 94 1006 541
1104 1108 20 116 19 336 -1 457 -94 561 -541 1006 -1108 1104 -110 19 -351 18
-461 -1z m852 -646 c79 -29 177 -127 226 -225 130 -256 125 -669 -11 -927 -75
-142 -196 -230 -317 -230 -122 0 -186 54 -320 270 -131 213 -212 277 -350 277
-121 1 -185 -46 -320 -232 -109 -149 -179 -179 -292 -127 -121 57 -193 248
-193 511 0 243 74 401 201 435 92 25 170 -8 261 -112 165 -189 214 -222 333
-222 158 0 238 74 379 351 64 125 130 207 191 234 55 25 140 24 212 -3z"/>
</g>
</svg>
