<svg version="1.0" xmlns="http://www.w3.org/2000/svg" width="712pt" height="712pt" viewBox="0 0 712 712"
 preserveAspectRatio="xMidYMid meet">
<g transform="translate(0,712) scale(0.1,-0.1)" fill="#562a78" stroke="none">
<circle fill="#fcb44c" cx="545pt" cy="550pt" r="400pt" transform="translate(0,-0) scale(5,5)"/>
<path d="M3305 7069 c-733 -53 -1448 -347 -2006 -826 -572 -490 -963 -1122
-1138 -1840 -174 -714 -119 -1453 159 -2138 351 -866 1055 -1571 1916 -1919
329 -133 594 -202 924 -241 249 -30 728 -18 970 24 239 41 546 126 705 196 17
7 75 32 130 56 254 110 501 257 735 438 257 199 532 483 690 711 13 19 27 37
30 40 16 15 157 241 210 338 221 406 350 813 411 1307 18 146 15 598 -5 755
-24 188 -45 301 -82 450 -245 988 -902 1812 -1819 2281 -558 285 -1198 414
-1830 368z m647 -968 c396 -64 762 -214 1090 -448 135 -97 198 -151 338 -292
670 -678 902 -1678 600 -2585 -160 -479 -455 -894 -866 -1217 -255 -202 -640
-385 -969 -462 -213 -50 -321 -62 -585 -62 -304 0 -466 23 -728 101 -580 175
-1069 540 -1405 1049 -255 387 -398 837 -414 1305 -28 813 323 1573 961 2085
303 243 699 427 1082 504 212 43 300 50 549 46 159 -3 256 -9 347 -24z"/>
<path d="M3350 5663 c-462 -46 -897 -250 -1239 -578 -248 -239 -425 -518 -535
-845 -146 -436 -143 -911 9 -1350 104 -300 264 -551 504 -791 187 -187 333
-291 566 -403 288 -140 514 -194 845 -203 371 -10 654 50 975 207 295 144 519
327 748 609 42 53 139 204 186 292 98 183 160 357 207 584 26 122 28 146 28
385 1 203 -3 274 -17 350 -62 337 -180 617 -369 883 -83 116 -266 310 -377
399 -306 247 -669 403 -1054 453 -106 13 -377 18 -477 8z m40 -772 c6 -11 10
-87 10 -175 0 -200 17 -186 -229 -186 -158 0 -187 2 -203 17 -16 14 -18 34
-18 179 0 145 2 164 18 173 10 6 99 11 214 11 185 0 198 -1 208 -19z m770 0
c5 -11 10 -87 10 -174 0 -138 -2 -156 -19 -171 -16 -15 -43 -17 -204 -16 -145
1 -189 5 -206 16 -20 14 -21 24 -21 179 0 146 2 165 18 174 10 6 99 11 214 11
185 0 198 -1 208 -19z m740 -444 c0 -73 -5 -160 -11 -192 -22 -117 -100 -232
-200 -292 -86 -51 -150 -63 -346 -63 l-173 0 -2 -734 c-3 -687 -4 -735 -21
-754 -10 -10 -101 -52 -204 -92 -140 -55 -190 -71 -202 -63 -14 9 -16 90 -19
827 l-2 816 -160 0 -160 0 0 -731 0 -731 -27 -27 c-38 -37 -380 -168 -402
-154 -14 9 -16 97 -19 827 l-2 816 -140 0 -140 0 0 -115 0 -115 -225 0 -225 0
0 133 c0 159 12 232 51 309 55 109 149 187 266 219 64 18 117 19 990 19 l923
0 0 115 0 115 225 0 225 0 0 -133z"/>
</g>
</svg>
